<?xml version="1.0" encoding="iso-8859-1"?>
<!-- Generator: Adobe Illustrator 16.0.0, SVG Export Plug-In . SVG Version: 6.00 Build 0)  -->
<!DOCTYPE svg PUBLIC "-//W3C//DTD SVG 1.1//EN" "http://www.w3.org/Graphics/SVG/1.1/DTD/svg11.dtd">
<svg version="1.1" id="Capa_1" xmlns="http://www.w3.org/2000/svg" xmlns:xlink="http://www.w3.org/1999/xlink" x="0px" y="0px"
	 width="553.349px" height="553.349px" viewBox="0 0 553.349 553.349" style="enable-background:new 0 0 553.349 553.349;"
	 xml:space="preserve">
<g>
	<path fill="#ffffff" d="M293.057,332.016l-49.285-88.884c-1.53-2.754-3.022-8.358-3.079-11.504l-2.983-143.6l-31.518-51.953l-62.797,5.078
		c-18.131,1.463-31.614,17.327-30.151,35.458l33.995,420.77c1.463,18.13,17.318,31.642,35.448,30.169l129.333-10.451l-10.576-22.511
		c-3.003,2.229-6.627,3.729-10.634,4.055c-11.408,0.928-21.4-7.563-22.318-18.972c-0.832-10.28,6.015-19.345,15.739-21.717
		l-8.3-17.681l20.091-87.315C297.484,346.579,296.241,337.763,293.057,332.016z M280.052,349.304l-18.646,81.043l-65.513,5.297
		c-4.992,0.402-9.362-3.317-9.764-8.3l-26.172-323.939c-0.401-5.001,3.309-9.342,8.31-9.744l53.837-4.351l2.218,142.586
		c0.096,5.842,2.295,14.104,5.125,19.192l49.285,88.884C279.947,342.151,280.616,346.856,280.052,349.304z"/>
	<path fill="#ffffff" d="M417.083,69.381c0-18.178-14.736-32.914-32.905-32.914H262.524l27.034,53.923l-7.507,142.768
		c-0.325,5.623,0.88,13.856,2.812,19.144l33.21,91.064c0.947,2.601,1.1,7.755,0.315,10.403l-24.737,80.125l33.966,90.566h56.562
		c18.169,0,32.905-14.736,32.905-32.924V69.381L417.083,69.381z M372.655,424.829c0,5.001-4.055,9.056-9.065,9.056h-51.924
		l22.424-75.458c1.798-6.062,1.539-14.755-0.622-20.684l-33.21-91.063c-1.167-3.185-2.047-9.19-1.846-12.584l8.367-143.323h56.82
		c5.011,0,9.065,4.055,9.065,9.056v325.001H372.655z"/>
	<path fill="#ffffff" d="M92.091,93.278l-39.837-27.1c-2.171-1.473-5.164-0.928-6.646,1.262c-1.482,2.19-0.918,5.154,1.262,6.646l39.847,27.1
		c0.823,0.564,1.76,0.832,2.687,0.832c1.53,0,3.031-0.727,3.959-2.094C94.846,97.734,94.281,94.77,92.091,93.278z"/>
	<path fill="#ffffff" d="M91.881,72.891c0.937,1.319,2.41,2.018,3.911,2.018c0.957,0,1.922-0.277,2.754-0.88c2.161-1.521,2.668-4.513,1.147-6.665
		L53.469,2.023c-1.53-2.152-4.514-2.678-6.665-1.138c-2.161,1.521-2.668,4.514-1.147,6.665L91.881,72.891z"/>
	<path fill="#ffffff" d="M428.883,69.974c-0.086,2.639,1.979,4.848,4.619,4.944c0.057,0,0.104,0,0.162,0c2.562,0,4.686-2.037,4.771-4.619
		c1.731-51.992-48.73-54.325-49.237-54.344c-2.658,0.019-4.857,1.97-4.943,4.609c-0.096,2.639,1.97,4.858,4.608,4.954
		C390.557,25.566,430.298,27.431,428.883,69.974z"/>
	<path fill="#ffffff" d="M95.783,279.115c1.377,0,2.745-0.593,3.682-1.73l17.346-20.923c1.683-2.037,1.406-5.049-0.622-6.732
		c-2.046-1.683-5.049-1.396-6.732,0.622l-17.346,20.923c-1.683,2.037-1.406,5.049,0.631,6.732
		C93.631,278.752,94.702,279.115,95.783,279.115z"/>
	<path fill="#ffffff" d="M168.247,553.349c2.41,0,4.944-0.105,7.603-0.315c2.629-0.201,4.59-2.515,4.379-5.145c-0.21-2.62-2.477-4.552-5.145-4.38
		c-35.075,2.744-42.572-16.447-42.907-17.385c-0.842-2.467-3.538-3.834-6.034-2.974c-2.505,0.832-3.854,3.538-3.012,6.053
		C123.476,530.246,131.661,553.349,168.247,553.349z"/>
	<path fill="#ffffff" d="M429.064,505.651c-0.641,2.562,0.908,5.163,3.472,5.804l70.083,17.634c0.392,0.096,0.784,0.144,1.177,0.144
		c2.142,0,4.083-1.444,4.628-3.615c0.641-2.562-0.908-5.163-3.472-5.804l-70.083-17.634
		C432.315,501.549,429.705,503.098,429.064,505.651z"/>
	<path fill="#ffffff" d="M459.177,553.349c1.76,0,3.452-0.976,4.284-2.648c1.176-2.372,0.21-5.24-2.161-6.417l-42.095-20.894
		c-2.371-1.167-5.23-0.201-6.406,2.161c-1.177,2.371-0.211,5.24,2.161,6.416l42.094,20.885
		C457.732,553.187,458.46,553.349,459.177,553.349z"/>
</g>
<g>
</g>
<g>
</g>
<g>
</g>
<g>
</g>
<g>
</g>
<g>
</g>
<g>
</g>
<g>
</g>
<g>
</g>
<g>
</g>
<g>
</g>
<g>
</g>
<g>
</g>
<g>
</g>
<g>
</g>
</svg>
