<?xml version="1.0" encoding="iso-8859-1"?>
<!-- Generator: Adobe Illustrator 19.0.0, SVG Export Plug-In . SVG Version: 6.00 Build 0)  -->
<svg version="1.1" id="Capa_1" xmlns="http://www.w3.org/2000/svg" xmlns:xlink="http://www.w3.org/1999/xlink" x="0px" y="0px"
	 viewBox="0 0 511.999 511.999" style="enable-background:new 0 0 511.999 511.999;" xml:space="preserve">
<g>
	<g>
		<path fill="#8F8F8F" d="M414.867,316.718c-12.561-57.363-55.563-93.965-68.562-144.521c-13.169-51.222-46.212-78.672-75.509-84.684
			c-3.692-33.997-13.666-20.377,12.521-24.59c7.909,13.98,23.469,22.82,40.572,21.264c22.033-1.998,57.2-35.139,72.685-48.979
			c-17.984-10.988-58.337-37.104-80.31-35.1c-19.253,1.745-33.807,15.97-37.477,33.188c-12.016,2.085-24.638-1.408-30.636-3.476
			c-14.136-19.156-29.664-28.836-30.853-29.559L201.637,25.85c1.476,0.919,33.026,21.038,38.939,61.802
			c-29.085,6.246-61.773,33.674-74.853,84.545c-12.993,50.536-56.007,87.187-68.562,144.521
			c-21.818,99.624,54.306,194.449,156.688,195.275C362.122,512.883,436.398,415.031,414.867,316.718z"/>
	</g>
</g>
<g>
</g>
<g>
</g>
<g>
</g>
<g>
</g>
<g>
</g>
<g>
</g>
<g>
</g>
<g>
</g>
<g>
</g>
<g>
</g>
<g>
</g>
<g>
</g>
<g>
</g>
<g>
</g>
<g>
</g>
</svg>
